<svg width="24" height="24" viewBox="0 0 24 24" fill="none" xmlns="http://www.w3.org/2000/svg">
<path d="M8.12084 21H15.8788C16.5611 21 17.2154 20.729 17.6979 20.2465C18.1803 19.7641 18.4513 19.1098 18.4513 18.4275V7.7475H15.8788V18.4275H5.54834C5.54834 19.1098 5.81937 19.7641 6.30181 20.2465C6.78425 20.729 7.43857 21 8.12084 21V21Z" fill="#989494"/>
<path d="M15.8788 3H8.12084C7.43857 3 6.78425 3.27103 6.30181 3.75347C5.81937 4.23591 5.54834 4.89023 5.54834 5.5725V16.2525H8.12084V5.5725H18.4513C18.4513 4.89023 18.1803 4.23591 17.6979 3.75347C17.2154 3.27103 16.5611 3 15.8788 3Z" fill="#989494"/>
</svg>
